<?xml version="1.0" encoding="UTF-8" standalone="no"?>
<svg
   xmlns:dc="http://purl.org/dc/elements/1.1/"
   xmlns:cc="http://creativecommons.org/ns#"
   xmlns:rdf="http://www.w3.org/1999/02/22-rdf-syntax-ns#"
   xmlns:svg="http://www.w3.org/2000/svg"
   xmlns="http://www.w3.org/2000/svg"
   viewBox="0 0 4000 4000"
   height="4000"
   width="4000"
   xml:space="preserve"
   id="svg2"
   version="1.1"><metadata
     id="metadata8"><rdf:RDF><cc:Work
         rdf:about=""><dc:format>image/svg+xml</dc:format><dc:type
           rdf:resource="http://purl.org/dc/dcmitype/StillImage" /></cc:Work></rdf:RDF></metadata><defs
     id="defs6"><clipPath
       id="clipPath18"
       clipPathUnits="userSpaceOnUse"><path
         id="path16"
         d="M 0,3000 H 3000 V 0 H 0 Z" /></clipPath></defs><g
     transform="matrix(1.3333333,0,0,-1.3333333,0,4000)"
     id="g10"><g
       id="g12"><g
         clip-path="url(#clipPath18)"
         id="g14"><g
           transform="translate(1466.3081,797.0801)"
           id="g20"><path
             id="path22"
             style="fill:#010101;fill-opacity:1;fill-rule:nonzero;stroke:none"
             d="m 0,0 c -221.864,0.013 -443.835,4.395 -665.537,-1.479 -156.046,-4.132 -260.729,143.536 -215.238,290.846 37.965,122.973 80.855,244.428 121.898,366.453 87.736,260.844 175.593,521.647 263.591,782.403 29.546,87.534 103.715,144.092 188.488,144.562 93.186,0.511 164.869,-51.37 196.571,-145.275 36.178,-107.169 70.461,-214.963 105.597,-322.481 11.907,-36.46 23.216,-73.141 36.359,-109.171 3.246,-8.917 12.553,-15.629 19.07,-23.357 7.358,7.909 18.418,14.568 21.523,23.881 45.706,137.151 90.955,274.471 135.027,412.146 23.183,72.429 63.567,128.516 137.951,154.359 103.91,36.097 214.096,-19.903 252.592,-129.84 38.657,-110.387 75.09,-221.534 112.41,-332.379 80.312,-238.507 160.636,-477.015 240.82,-715.57 25.581,-76.105 -21.919,-143.084 -96.029,-134.477 -41.251,4.798 -67.712,29.432 -80.808,68.311 -58.977,175.149 -118.007,350.279 -176.668,525.536 -57.11,170.628 -113.633,341.45 -171.051,511.964 -3.34,9.918 -12.432,17.901 -18.849,26.777 -6.349,-9.212 -15.273,-17.571 -18.646,-27.765 C 342.088,1223.535 296.114,1081.284 249.346,939.302 222.596,858.097 166.939,808.252 81.85,796.11 c -82.079,-11.726 -150.013,16.637 -197.842,84.752 -15.488,22.047 -25.661,48.69 -34.195,74.559 -44.288,134.411 -87.272,269.257 -130.714,403.942 -1.814,5.611 -2.547,12.048 -5.866,16.583 -4.764,6.518 -11.443,11.652 -17.31,17.377 -4.663,-5.846 -11.356,-10.973 -13.667,-17.632 -19.352,-55.704 -37.904,-111.691 -56.685,-167.59 -107.425,-319.693 -214.849,-639.385 -322.192,-959.111 -2.802,-8.352 -6.35,-16.973 -6.632,-25.568 -0.706,-21.24 6.107,-37.071 31.998,-34.907 5.873,0.483 11.826,0.093 17.739,0.093 442.733,0.007 885.466,0.101 1328.198,-0.268 18.465,-0.014 37.858,-1.378 55.2,-7.042 41.144,-13.426 67.035,-58.89 60.214,-100.57 C 782.765,35.889 746.238,1.418 701.07,0.523 633.055,-0.8 565,0 496.965,0 331.31,-0.034 165.655,-0.014 0,0" /></g><g
           transform="translate(1499.623,58.9678)"
           id="g24"><path
             id="path26"
             style="fill:#010101;fill-opacity:1;fill-rule:nonzero;stroke:none"
             d="m 0,0 c -384.656,0 -746.278,149.791 -1018.269,421.781 -271.984,271.985 -421.775,633.614 -421.775,1018.263 0,384.649 149.791,746.271 421.775,1018.269 271.991,271.984 633.613,421.768 1018.269,421.768 384.649,0 746.278,-149.784 1018.263,-421.768 271.99,-271.998 421.781,-633.62 421.781,-1018.269 0,-384.649 -149.791,-746.278 -421.781,-1018.263 C 746.278,149.791 384.649,0 0,0 m 0,2695.645 c -335.382,0 -650.687,-130.607 -887.844,-367.764 -237.151,-237.144 -367.757,-552.448 -367.757,-887.837 0,-335.39 130.606,-650.688 367.757,-887.844 C -650.687,315.05 -335.382,184.442 0,184.442 c 335.383,0 650.687,130.608 887.845,367.758 237.143,237.156 367.756,552.454 367.756,887.844 0,335.389 -130.613,650.693 -367.756,887.837 C 650.687,2565.038 335.383,2695.645 0,2695.645" /></g></g></g></g></svg>